<svg width="44" height="44" viewBox="0 0 44 44" fill="none" xmlns="http://www.w3.org/2000/svg">
    <g clip-path="url(#clip0_61_759)">
        <path d="M29.3333 3.66669C29.7824 3.66675 30.2158 3.83161 30.5513 4.13C30.8869 4.42839 31.1013 4.83956 31.1538 5.28552L31.1667 5.50002V7.33335H33C34.4029 7.33328 35.7528 7.86928 36.7735 8.83171C37.7942 9.79413 38.4085 11.1102 38.4908 12.5107L38.5 12.8334V34.8334C38.5001 36.2362 37.9641 37.5861 37.0016 38.6068C36.0392 39.6275 34.7231 40.2419 33.3227 40.3242L33 40.3334H11C9.59711 40.3334 8.24722 39.7974 7.22652 38.835C6.20582 37.8726 5.59147 36.5565 5.50917 35.156L5.5 34.8334V12.8334C5.49992 11.4305 6.03593 10.0806 6.99835 9.05988C7.96078 8.03917 9.27686 7.42482 10.6773 7.34252L11 7.33335H12.8333V5.50002C12.8339 5.03274 13.0128 4.58329 13.3336 4.24351C13.6543 3.90373 14.0927 3.69926 14.5592 3.67187C15.0257 3.64449 15.485 3.79626 15.8434 4.09617C16.2017 4.39609 16.432 4.82151 16.4872 5.28552L16.5 5.50002V7.33335H27.5V5.50002C27.5 5.01379 27.6932 4.54747 28.037 4.20366C28.3808 3.85984 28.8471 3.66669 29.3333 3.66669ZM34.8333 16.5H9.16667V34.1459C9.16667 35.4384 9.87433 36.5035 10.7855 36.6502L11 36.6667H33C33.9405 36.6667 34.716 35.695 34.8205 34.4392L34.8333 34.1459V16.5Z" fill="#A3AED0"/>
        <path d="M22.0001 22C22.4491 22.0001 22.8825 22.1649 23.2181 22.4633C23.5537 22.7617 23.768 23.1729 23.8206 23.6188L23.8334 23.8333V29.3333C23.8329 29.8006 23.654 30.2501 23.3332 30.5898C23.0124 30.9296 22.574 31.1341 22.1075 31.1615C21.6411 31.1889 21.1817 31.0371 20.8234 30.7372C20.4651 30.4373 20.2348 30.0118 20.1796 29.5478L20.1668 29.3333V25.6667C19.6995 25.6661 19.25 25.4872 18.9102 25.1664C18.5705 24.8457 18.366 24.4073 18.3386 23.9408C18.3112 23.4743 18.463 23.015 18.7629 22.6566C19.0628 22.2983 19.4882 22.068 19.9523 22.0128L20.1668 22H22.0001Z" fill="#A3AED0"/>
    </g>
    <defs>
        <clipPath id="clip0_61_759">
            <rect width="44" height="44" fill="white"/>
        </clipPath>
    </defs>
</svg>
