<svg width="18" height="14" viewBox="0 0 18 14" fill="none" xmlns="http://www.w3.org/2000/svg">
    <path d="M15.7386 3.37378L8.98143 7.59704L2.22421 3.37378V1.68448L8.98143 5.90774L15.7386 1.68448M15.7386 -0.00482178H2.22421C1.28665 -0.00482178 0.534912 0.746918 0.534912 1.68448V11.8203C0.534912 12.2683 0.712892 12.698 1.0297 13.0148C1.3465 13.3316 1.77618 13.5096 2.22421 13.5096H15.7386C16.1867 13.5096 16.6163 13.3316 16.9332 13.0148C17.25 12.698 17.4279 12.2683 17.4279 11.8203V1.68448C17.4279 1.23645 17.25 0.806769 16.9332 0.489964C16.6163 0.173158 16.1867 -0.00482178 15.7386 -0.00482178Z" fill="#0067B2"/>
</svg>
