<svg width="16" height="18" viewBox="0 0 16 18" fill="none" xmlns="http://www.w3.org/2000/svg">
    <path d="M7.98145 0.724792C6.04068 0.726868 4.18006 1.42674 2.80774 2.67088C1.43541 3.91503 0.66343 5.60185 0.661141 7.36134C0.658816 8.79919 1.17688 10.198 2.13585 11.3433C2.13585 11.3433 2.33549 11.5816 2.3681 11.616L7.98145 17.6178L13.5975 11.613C13.6267 11.581 13.827 11.3433 13.827 11.3433L13.8277 11.3415C14.7862 10.1967 15.304 8.79853 15.3018 7.36134C15.2995 5.60185 14.5275 3.91503 13.1552 2.67088C11.7828 1.42674 9.92221 0.726868 7.98145 0.724792ZM7.98145 9.77463C7.45497 9.77463 6.94031 9.63309 6.50256 9.36792C6.06481 9.10274 5.72362 8.72584 5.52214 8.28487C5.32067 7.84389 5.26795 7.35866 5.37066 6.89053C5.47338 6.4224 5.7269 5.99239 6.09918 5.65489C6.47145 5.31738 6.94577 5.08754 7.46213 4.99442C7.97849 4.9013 8.51372 4.94909 9.00012 5.13175C9.48653 5.31441 9.90226 5.62372 10.1948 6.02059C10.4873 6.41745 10.6434 6.88404 10.6434 7.36134C10.6425 8.00114 10.3618 8.6145 9.86274 9.06691C9.36372 9.51932 8.68716 9.77383 7.98145 9.77463Z" fill="#0067B2"/>
</svg>
