<svg width="18" height="18" viewBox="0 0 18 18" fill="none" xmlns="http://www.w3.org/2000/svg">
    <path d="M16.369 17.1899C7.36181 17.2026 0.52542 10.2849 0.534922 1.35586C0.534922 0.771991 1.00793 0.296875 1.59074 0.296875H4.37808C4.90071 0.296875 5.34521 0.681191 5.42228 1.19854C5.6061 2.43918 5.967 3.64702 6.49393 4.78514L6.60268 5.01953C6.67573 5.17725 6.69145 5.35553 6.64712 5.52361C6.60278 5.69168 6.50119 5.83902 6.35985 5.9402C5.49619 6.55679 5.16678 7.79737 5.83933 8.7645C6.68608 9.98219 7.7429 11.0394 8.96031 11.8865C9.9285 12.558 11.1691 12.2286 11.7846 11.366C11.8857 11.2243 12.0331 11.1223 12.2015 11.0777C12.3698 11.0332 12.5484 11.0489 12.7063 11.1221L12.9397 11.2298C14.0778 11.7577 15.2857 12.1188 16.5263 12.3025C17.0436 12.3796 17.4279 12.8241 17.4279 13.3478V16.1341C17.4279 16.2728 17.4006 16.4102 17.3475 16.5384C17.2943 16.6665 17.2165 16.783 17.1183 16.881C17.0202 16.9791 16.9037 17.0568 16.7754 17.1098C16.6472 17.1628 16.5098 17.19 16.3711 17.1899H16.369Z" fill="#0067B2"/>
</svg>
